<svg id="Layer_1" data-name="Layer 1" xmlns="http://www.w3.org/2000/svg" viewBox="0 0 140 140"><defs><style>.cls-1{fill:#010101;}</style></defs><title>Artboard 1</title><path class="cls-1" d="M19.33,67.49l-4.14.18.1,2.34L18,69.89a4.15,4.15,0,0,1,.58,1.78,3.06,3.06,0,0,1-.33,1.53,2.83,2.83,0,0,1-1.06,1.11,3.28,3.28,0,0,1-1.57.46A3.17,3.17,0,0,1,14,74.45a2.77,2.77,0,0,1-1.14-1A2.82,2.82,0,0,1,12.42,72a3.63,3.63,0,0,1,.25-1.46,4,4,0,0,1,.79-1.34l-2-1.46a6.19,6.19,0,0,0-1.05,2,6.5,6.5,0,0,0-.32,2.33,6.08,6.08,0,0,0,.82,2.9,5.2,5.2,0,0,0,4.79,2.61,5.36,5.36,0,0,0,2.72-.85,5.17,5.17,0,0,0,1.85-2.08,5.76,5.76,0,0,0,.58-2.87,7.57,7.57,0,0,0-.48-2.28A7.18,7.18,0,0,0,19.33,67.49Z"/><rect class="cls-1" x="14.56" y="57.68" width="2.72" height="10.41" transform="translate(-48.51 70.43) rotate(-82.47)"/><polygon class="cls-1" points="20.23 56.18 12.46 53.93 11.71 56.54 21.71 59.43 23.69 52.58 21.46 51.94 20.23 56.18"/><path class="cls-1" d="M27.48,44.18a3.05,3.05,0,0,0-.23-1.7,2.53,2.53,0,0,0-1.13-1.16,2.72,2.72,0,0,0-1.79-.3,2.54,2.54,0,0,0-1.53,1,2.46,2.46,0,0,0-.12-1.55,2.24,2.24,0,0,0-1-1.1,2.15,2.15,0,0,0-1.46-.23,3,3,0,0,0-1.44.76,5.94,5.94,0,0,0-1.24,1.65l-2.32,4.37,9.19,4.88,2.42-4.54A5.64,5.64,0,0,0,27.48,44.18Zm-6.38-.59-1,1.83-1.79-1,1-1.83A1.34,1.34,0,0,1,20,42a.87.87,0,0,1,.81.05,1,1,0,0,1,.52.65A1.34,1.34,0,0,1,21.1,43.59Zm3.67,1.95-1,1.83-1.93-1,1-1.84a2,2,0,0,1,.78-.87.92.92,0,0,1,.88,0,1,1,0,0,1,.54.76A1.83,1.83,0,0,1,24.77,45.54Z"/><polygon class="cls-1" points="35.4 34.63 33.76 33.22 30.08 37.5 28.59 36.23 31.81 32.45 30.18 31.05 26.95 34.81 25.47 33.55 29.05 29.38 27.41 27.96 22.06 34.2 29.96 40.98 35.4 34.63"/><path class="cls-1" d="M39.25,31.45l-1.72-2.31L39.1,28l0,0,2.94,1.41,2.46-1.83-3.76-1.44a3.28,3.28,0,0,0,.31-1.89,4.05,4.05,0,0,0-.83-1.91,3.32,3.32,0,0,0-2.52-1.48,4.84,4.84,0,0,0-3.14,1.14l-3.75,2.79,6.21,8.35Zm-4.92-6.61,1.59-1.18a1.84,1.84,0,0,1,1.27-.44,1.49,1.49,0,0,1,1.06.66,1.62,1.62,0,0,1,.36,1.24,1.84,1.84,0,0,1-.79,1.1L36.24,27.4Z"/><polygon class="cls-1" points="45.1 18.22 48.45 25.67 50.93 24.55 47.58 17.11 50.42 15.83 49.5 13.78 41.36 17.44 42.28 19.49 45.1 18.22"/><path class="cls-1" d="M105.24,35.12a3,3,0,0,0,1.71.18,2.44,2.44,0,0,0,1.39-.82,2.72,2.72,0,0,0,.73-1.67,2.54,2.54,0,0,0-.57-1.71,2.45,2.45,0,0,0,1.53.25,2.26,2.26,0,0,0,1.31-.74,2.17,2.17,0,0,0,.58-1.36,3.09,3.09,0,0,0-.4-1.58,5.81,5.81,0,0,0-1.31-1.59l-3.69-3.3-6.93,7.77L103.42,34A5.85,5.85,0,0,0,105.24,35.12Zm1.9-8.94,1.55,1.38a1.36,1.36,0,0,1,.5.78.87.87,0,0,1-.25.76.92.92,0,0,1-.75.36,1.37,1.37,0,0,1-.85-.39l-1.55-1.39Zm-2.66,3L106,30.54a1.9,1.9,0,0,1,.66,1,.9.9,0,0,1-.21.86,1,1,0,0,1-.87.34,1.92,1.92,0,0,1-1-.53L103,30.79Z"/><path class="cls-1" d="M109.62,37.5a4,4,0,0,0-.33,2.26,5.34,5.34,0,0,0,1,2.37,5.53,5.53,0,0,0,1.87,1.73,3.85,3.85,0,0,0,2.22.44,4.73,4.73,0,0,0,2.27-.88l5-3.49-1.56-2.24-5,3.5a2.25,2.25,0,0,1-1.61.46,1.89,1.89,0,0,1-1.29-.83,2,2,0,0,1-.35-1.55,2.19,2.19,0,0,1,1-1.37l5-3.5-1.56-2.23-5,3.49A4.67,4.67,0,0,0,109.62,37.5Z"/><polygon class="cls-1" points="115.16 50.41 120.98 48.2 116.84 54.82 117.69 57.04 127.42 53.34 126.52 50.98 120.67 53.22 124.84 46.56 123.98 44.33 114.26 48.04 115.16 50.41"/><polygon class="cls-1" points="118.61 62.1 124.79 61.37 119.17 66.79 119.45 69.15 129.78 67.93 129.49 65.42 123.27 66.17 128.93 60.73 128.65 58.36 118.32 59.58 118.61 62.1"/><polygon class="cls-1" points="118.41 80.13 120.56 80.37 121.2 74.77 123.15 74.99 122.6 79.92 124.74 80.16 125.31 75.23 127.24 75.46 126.61 80.92 128.77 81.16 129.7 73 119.36 71.82 118.41 80.13"/><polygon class="cls-1" points="115.58 89.17 117.79 89.89 119.15 85.7 126.85 88.21 127.69 85.63 117.79 82.4 115.58 89.17"/><polygon class="cls-1" points="111.32 97.2 113.35 98.31 115.47 94.44 122.57 98.33 123.87 95.94 114.74 90.95 111.32 97.2"/><polygon class="cls-1" points="24.04 96.45 25.47 98.91 26.54 98.3 24.32 94.51 19.24 97.47 20.02 98.8 21.85 97.73 23.18 100 24.23 99.38 22.91 97.11 24.04 96.45"/><path class="cls-1" d="M30.73,103.67a3.41,3.41,0,0,0-1.36-1,3,3,0,0,0-1.56-.16,2.91,2.91,0,0,0-1.44.68,3,3,0,0,0-.92,1.34,2.92,2.92,0,0,0-.1,1.58,3.48,3.48,0,0,0,2.11,2.46,3,3,0,0,0,1.58.16,3,3,0,0,0,1.45-.7,2.9,2.9,0,0,0,.91-1.32,3.09,3.09,0,0,0,.08-1.57A3.4,3.4,0,0,0,30.73,103.67ZM30,106.13a1.88,1.88,0,0,1-.53.73,1.84,1.84,0,0,1-.81.41,1.53,1.53,0,0,1-.85,0,1.41,1.41,0,0,1-.69-.46,1.44,1.44,0,0,1-.35-.76,1.82,1.82,0,0,1,.09-.86,1.91,1.91,0,0,1,.53-.74,1.72,1.72,0,0,1,.81-.4,1.57,1.57,0,0,1,.86,0,1.53,1.53,0,0,1,.7.47,1.43,1.43,0,0,1,.34.76A1.53,1.53,0,0,1,30,106.13Z"/><path class="cls-1" d="M36.4,113.94a1.3,1.3,0,0,1-.79.51,1.07,1.07,0,0,1-.84-.25,1.13,1.13,0,0,1-.44-.78,1.19,1.19,0,0,1,.3-.89l2.16-2.7-1.2-1-2.15,2.7a2.6,2.6,0,0,0-.58,1.25A2.19,2.19,0,0,0,33,114.1a3.07,3.07,0,0,0,.91,1.12,3,3,0,0,0,1.29.64,2.19,2.19,0,0,0,1.27-.12,2.62,2.62,0,0,0,1.09-.84l2.16-2.7-1.2-1Z"/><polygon class="cls-1" points="45.28 119.58 44.56 115.2 43.37 114.57 40.62 119.77 41.89 120.44 43.53 117.33 44.25 121.69 45.44 122.31 48.18 117.11 46.92 116.45 45.28 119.58"/><path class="cls-1" d="M56.18,120.36a3.54,3.54,0,0,0-1.46-.83l-2.42-.73-1.71,5.62,2.36.72a3.58,3.58,0,0,0,1.7.13,2.63,2.63,0,0,0,1.38-.66,3,3,0,0,0,.83-1.36,2.92,2.92,0,0,0,.07-1.57A2.7,2.7,0,0,0,56.18,120.36Zm-.82,2.45a2,2,0,0,1-.45.79,1.38,1.38,0,0,1-.68.41,1.44,1.44,0,0,1-.82,0l-1-.3,1-3.24.93.28a1.65,1.65,0,0,1,.72.44,1.57,1.57,0,0,1,.37.74A2,2,0,0,1,55.36,122.81Z"/><path class="cls-1" d="M63.46,121.43,60.29,127l1.56.18.53-1,2.52.28.29,1.08,1.62.18L65,121.6ZM63,125.06l1-2,.57,2.17Z"/><polygon class="cls-1" points="75.22 121.63 70.19 121.9 70.26 123.16 72 123.07 72.24 127.68 73.78 127.6 73.53 122.99 75.29 122.9 75.22 121.63"/><rect class="cls-1" x="79.77" y="120.8" width="1.53" height="5.88" transform="translate(-22.55 18.05) rotate(-11.23)"/><path class="cls-1" d="M90.79,119a3,3,0,0,0-1.45-.62,3.32,3.32,0,0,0-1.66.19,3.38,3.38,0,0,0-1.38.93,2.85,2.85,0,0,0-.7,1.41,2.91,2.91,0,0,0,.14,1.59,3,3,0,0,0,.93,1.32,2.85,2.85,0,0,0,1.45.64,3.47,3.47,0,0,0,3-1.12,3,3,0,0,0,.54-3A3,3,0,0,0,90.79,119Zm-.45,2.76a1.68,1.68,0,0,1-.32.79,1.53,1.53,0,0,1-1.51.55,1.6,1.6,0,0,1-.77-.38,1.88,1.88,0,0,1-.52-.76,1.7,1.7,0,0,1-.09-.89,1.49,1.49,0,0,1,.34-.79,1.53,1.53,0,0,1,.68-.5,1.47,1.47,0,0,1,.83-.06,1.6,1.6,0,0,1,.75.39,1.77,1.77,0,0,1,.5.75A1.88,1.88,0,0,1,90.34,121.78Z"/><polygon class="cls-1" points="102.04 118 99 112.97 97.78 113.71 99.62 116.73 95.5 115.08 94.34 115.78 97.38 120.81 98.61 120.07 96.79 117.06 100.89 118.69 102.04 118"/><path d="M70,0a70,70,0,1,0,70,70A70.08,70.08,0,0,0,70,0Zm0,136A66.11,66.11,0,0,1,7.62,91.59,1.28,1.28,0,0,1,8.48,90L28,84.32a1.28,1.28,0,0,1,1.55.79,43.18,43.18,0,0,0,68.81,17.44,1.28,1.28,0,0,1,1.74,0l14.47,14.24a1.28,1.28,0,0,1,0,1.85A65.74,65.74,0,0,1,70,136ZM63.34,39.53a2.46,2.46,0,0,0,.84-.17A2.22,2.22,0,0,0,65.41,37l-.63-4.69a.86.86,0,0,1,.69-1A21.29,21.29,0,0,1,68.89,31l1,0a19.05,19.05,0,0,1,2.61.16.88.88,0,0,1,.75.76L74,38s0,.05,0,.08a1.59,1.59,0,0,0,.08.35.42.42,0,0,1,0,.1,1.3,1.3,0,0,0,.22.42.43.43,0,0,1,0,.07,1.79,1.79,0,0,1,.22.25.11.11,0,0,1,.06,0,.27.27,0,0,0,.12.09,2.69,2.69,0,0,0,.27.2l.07,0a25.68,25.68,0,0,0,11.63,2.8,26.64,26.64,0,0,0,7.24-1,2,2,0,0,0,.76-.4,1.07,1.07,0,0,1,1.38,0,39,39,0,0,1,9,46c-.52,1.06-1.09,2.1-1.7,3.1a39,39,0,0,1-27.62,18.43,1,1,0,0,1-1.07-.8L74,102.17a2.14,2.14,0,0,0-2.08-1.84l-.28,0a2.12,2.12,0,0,0-1.82,2.37s.45,3.35.68,5.14a1,1,0,0,1-1,1.1A39.07,39.07,0,0,1,31,69.94a38.51,38.51,0,0,1,2.16-12.77,39.1,39.1,0,0,1,26.4-24.82.88.88,0,0,1,1.11.72l.62,4.64A2.08,2.08,0,0,0,63.34,39.53Zm-.8-24.21a.83.83,0,0,1,.62-.94,21.52,21.52,0,0,1,14.46,1.51.87.87,0,0,1,.49.7l.94,10.56a.85.85,0,0,1-1.09.9,26.09,26.09,0,0,0-13-.88.84.84,0,0,1-1-.71ZM83.19,26.25a.86.86,0,0,1,.88-.92,24.64,24.64,0,0,0,4-.22.84.84,0,0,1,1,.7l1.84,11.11a.86.86,0,0,1-.7,1A21.37,21.37,0,0,1,81,37.39a.85.85,0,0,1-.4-1.41l2.49-2.58,0,0,.08-.1a2.37,2.37,0,0,0,.22-.33,1.34,1.34,0,0,1,.06-.12,1.91,1.91,0,0,0,.15-.44s0,0,0,0a2.29,2.29,0,0,0,0-.52.43.43,0,0,1,0,0ZM117.35,114,102.89,99.78a1.28,1.28,0,0,1-.06-1.75A43.14,43.14,0,0,0,95.14,34.8a1.16,1.16,0,0,1-.47-.77l-2-11.88a2.14,2.14,0,0,0-.93-1.42,2.05,2.05,0,0,0-1.67-.27,22.41,22.41,0,0,1-6.64.62.89.89,0,0,1-.82-.8l-.51-5.69a2.05,2.05,0,0,0-1-1.62,26.16,26.16,0,0,0-21.7-1.91,3.49,3.49,0,0,0-.39.19l0,0a1.29,1.29,0,0,0-.3.22c-.05,0-.08.09-.12.12l-.16.17a1.29,1.29,0,0,0-.09.16,1.22,1.22,0,0,0-.12.19l-.07.18a1.5,1.5,0,0,0-.07.2,1.09,1.09,0,0,0,0,.26.69.69,0,0,0,0,.13,3.05,3.05,0,0,0,0,.43l1.83,13.79a.87.87,0,0,1-.65,1A43.29,43.29,0,0,0,26.84,72.52,42.07,42.07,0,0,0,27.73,79a1.27,1.27,0,0,1-.89,1.5L7.35,86.14a1.28,1.28,0,0,1-1.6-.92A66,66,0,1,1,119.2,114,1.28,1.28,0,0,1,117.35,114Z"/><path d="M58.48,78.35c3.67.06,7.34.06,11,.05h0c3.9,0,7.77,0,11.66,0H86a4.81,4.81,0,0,1,4.7,4.57c0,2.4-1.81,4.68-4.21,4.68,0,0-10.21,0-13.5-.25-.75-.06-.86-.31-1-.9S71.61,84,71.61,84a2.14,2.14,0,0,0-2.09-1.83l-.28,0a2,2,0,0,0-1.76,1.63,6.63,6.63,0,0,0-.06,1.54c0,.35.08.69.1,1a1.68,1.68,0,0,1-.07.89.74.74,0,0,1-.46.33,3.78,3.78,0,0,1-.67,0c-.44,0-.87,0-1.3,0a1.74,1.74,0,0,0-1.7,1l-.9,1.94c-.05.11-.1.23-.15.33a.73.73,0,0,0-.07.24.77.77,0,0,0,.75.83h.2c2.12,0,6.35-.08,8.42-.09h.25l.93,0H86.1a9,9,0,0,0,8.05-4.93A7.87,7.87,0,0,0,95,83.63a8.49,8.49,0,0,0-5.6-8.36.36.36,0,0,1-.16-.56A6.59,6.59,0,0,0,91,70.1a8.65,8.65,0,0,0-8.77-8.52l-11.53.15c-2.44,0-8.22-.06-11.29-.18a1.86,1.86,0,0,0-1.76,1.09c-.31.66-.68,1.49-1,2.13a.71.71,0,0,0,.66,1c1,0,1.69-.08,3.08-.08H64a1,1,0,0,1,1,.88c.07.52.14,1.06.2,1.58l.42,3.17.18,1.37a8.28,8.28,0,0,1,.06.86.9.9,0,0,1-.22.69.84.84,0,0,1-.55.22c-.3,0-.61,0-.91,0h-.88c-.85,0-1.69,0-2.55,0a20.9,20.9,0,0,1-5-.62,13,13,0,0,1-3-1.21,9.82,9.82,0,0,1-5.21-8.15c-.18-7.69,5.15-12.57,12.1-12.57,1.08,0,2.5-.13,3.32.74.4.42.58,2.36.91,3a2,2,0,0,0,1.67.9A2.1,2.1,0,0,0,67.64,54l-.36-2.77c-.14-1.48-.38-2.73-.38-2.73-.09-.45-.3-.49-.73-.45-.9.08-1.82.12-2.72.12-1.61,0-3.21,0-4.82,0A15,15,0,0,0,43.78,58.42a16.12,16.12,0,0,0-.85,5.15v.69C42.93,72.48,50.12,78.22,58.48,78.35ZM70.3,65.67l12,0A4.32,4.32,0,0,1,86.66,71a4.91,4.91,0,0,1-4.81,3.62H71.21a1,1,0,0,1-1-.89l-.9-6.85A1,1,0,0,1,70.3,65.67Z"/></svg>