<svg id="Layer_1" data-name="Layer 1" xmlns="http://www.w3.org/2000/svg" viewBox="0 0 179.28 542.55"><defs><style>.cls-1{fill:#102b45;}.cls-2{font-size:9px;fill:#dfe1df;font-family:Montserrat-Regular, Montserrat;}</style></defs><title>logo_dark</title><path class="cls-1" d="M25.05,86.12l-5.3.23.13,3,3.44-.15a5.25,5.25,0,0,1,.75,2.27,3.74,3.74,0,0,1-.43,2,3.64,3.64,0,0,1-1.35,1.43,4.1,4.1,0,0,1-2,.58,4,4,0,0,1-2-.4,3.73,3.73,0,0,1-1.46-1.29,3.65,3.65,0,0,1-.6-1.9A4.67,4.67,0,0,1,16.53,90a5.65,5.65,0,0,1,1-1.71L15,86.41A7.83,7.83,0,0,0,13.67,89a8.61,8.61,0,0,0-.41,3,8,8,0,0,0,1.06,3.71,6.67,6.67,0,0,0,2.58,2.53,6.56,6.56,0,0,0,3.54.8,6.84,6.84,0,0,0,3.5-1.08,6.7,6.7,0,0,0,2.36-2.67A7.27,7.27,0,0,0,27,91.59a9.78,9.78,0,0,0-.61-2.92,8.79,8.79,0,0,0-1.38-2.55" transform="translate(-0.3 0.3)"/><rect class="cls-1" x="18.95" y="73.56" width="3.48" height="13.33" transform="translate(-61.86 90.53) rotate(-82.47)"/><polygon class="cls-1" points="25.91 71.94 15.96 69.06 14.99 72.4 27.8 76.11 30.33 67.33 27.48 66.51 25.91 71.94"/><path class="cls-1" d="M32,58l-1.25,2.35-2.47-1.31,1.25-2.35a2.41,2.41,0,0,1,1-1.12,1.19,1.19,0,0,1,1.13,0,1.26,1.26,0,0,1,.69,1A2.41,2.41,0,0,1,32,58m-4.7-2.5-1.25,2.35-2.29-1.22L25,54.29a1.77,1.77,0,0,1,.82-.86,1.13,1.13,0,0,1,1,.08,1.18,1.18,0,0,1,.67.82,1.75,1.75,0,0,1-.22,1.18m8.17.77a3.92,3.92,0,0,0-.3-2.19,3.34,3.34,0,0,0-1.45-1.48,3.4,3.4,0,0,0-2.29-.38,3.24,3.24,0,0,0-2,1.22,3.15,3.15,0,0,0-.15-2A2.89,2.89,0,0,0,28,50.06a2.77,2.77,0,0,0-1.86-.3,3.88,3.88,0,0,0-1.84,1,7.68,7.68,0,0,0-1.59,2.12l-3,5.59L31.53,64.7l3.09-5.81a7.53,7.53,0,0,0,.88-2.61" transform="translate(-0.3 0.3)"/><polygon class="cls-1" points="45.33 44.35 43.23 42.54 38.52 48.02 36.62 46.39 40.74 41.55 38.65 39.76 34.51 44.58 32.62 42.96 37.2 37.62 35.09 35.81 28.25 43.79 38.36 52.47 45.33 44.35"/><path class="cls-1" d="M44.27,31.5l2-1.51a2.39,2.39,0,0,1,1.63-.56,1.91,1.91,0,0,1,1.36.85,2,2,0,0,1,.45,1.58,2.33,2.33,0,0,1-1,1.41l-2,1.51ZM50.57,40l-2.2-3,2-1.5.06,0,3.76,1.81,3.16-2.35-4.83-1.84a4.19,4.19,0,0,0,.41-2.42,5.37,5.37,0,0,0-1.06-2.45,4.28,4.28,0,0,0-3.23-1.9,6.21,6.21,0,0,0-4,1.46l-4.81,3.58,8,10.69Z" transform="translate(-0.3 0.3)"/><polygon class="cls-1" points="57.75 23.33 62.04 32.87 65.22 31.44 60.92 21.91 64.56 20.27 63.39 17.65 52.97 22.34 54.14 24.96 57.75 23.33"/><path class="cls-1" d="M134.1,37l2,1.78a2.37,2.37,0,0,1,.84,1.22,1.15,1.15,0,0,1-.26,1.1,1.24,1.24,0,0,1-1.11.44,2.4,2.4,0,0,1-1.33-.68l-2-1.77Zm3.4-3.81,2,1.77a1.73,1.73,0,0,1,.64,1,1.14,1.14,0,0,1-.32,1,1.18,1.18,0,0,1-1,.46,1.74,1.74,0,0,1-1.09-.5l-2-1.77Zm-2.43,11.45a3.88,3.88,0,0,0,2.2.23,3.22,3.22,0,0,0,1.78-1,3.43,3.43,0,0,0,.92-2.13,3.27,3.27,0,0,0-.73-2.21,3.09,3.09,0,0,0,2,.33,2.87,2.87,0,0,0,1.68-1,2.77,2.77,0,0,0,.73-1.74,3.8,3.8,0,0,0-.5-2,7.48,7.48,0,0,0-1.68-2l-4.73-4.22-8.87,10,4.91,4.38a7.48,7.48,0,0,0,2.32,1.47" transform="translate(-0.3 0.3)"/><path class="cls-1" d="M140.68,47.72a5.09,5.09,0,0,0-.43,2.89,7.62,7.62,0,0,0,3.65,5.25,5,5,0,0,0,2.84.57,6.25,6.25,0,0,0,2.91-1.13l6.43-4.48-2-2.85-6.43,4.47a2.9,2.9,0,0,1-2.06.59A2.38,2.38,0,0,1,144,52a2.54,2.54,0,0,1-.45-2,2.75,2.75,0,0,1,1.23-1.76l6.43-4.47-2-2.86-6.44,4.48a6,6,0,0,0-2.06,2.35" transform="translate(-0.3 0.3)"/><polygon class="cls-1" points="147.47 64.55 154.92 61.72 149.63 70.2 150.71 73.05 163.17 68.3 162.01 65.28 154.52 68.15 159.86 59.63 158.77 56.77 146.31 61.52 147.47 64.55"/><polygon class="cls-1" points="151.89 79.53 159.81 78.59 152.6 85.53 152.96 88.55 166.2 86.99 165.82 83.78 157.85 84.74 165.11 77.77 164.75 74.73 151.51 76.3 151.89 79.53"/><polygon class="cls-1" points="151.63 102.61 154.39 102.92 155.21 95.74 157.71 96.03 157 102.34 159.74 102.65 160.46 96.34 162.94 96.63 162.14 103.62 164.9 103.93 166.09 93.48 152.85 91.97 151.63 102.61"/><polygon class="cls-1" points="148.01 114.19 150.84 115.11 152.58 109.74 162.44 112.96 163.52 109.65 150.84 105.52 148.01 114.19"/><polygon class="cls-1" points="142.55 124.48 145.15 125.9 147.86 120.94 156.96 125.91 158.63 122.86 146.93 116.47 142.55 124.48"/><polygon class="cls-1" points="30.78 123.51 32.62 126.66 33.98 125.88 31.14 121.02 24.64 124.82 25.63 126.52 27.98 125.15 29.68 128.06 31.03 127.27 29.33 124.36 30.78 123.51"/><path class="cls-1" d="M38.71,135.6A2.51,2.51,0,0,1,37,137.06a2,2,0,0,1-1.09,0,1.87,1.87,0,0,1-.89-.59,1.92,1.92,0,0,1-.45-1,2.24,2.24,0,0,1,.8-2.05,2.22,2.22,0,0,1,1-.51,2,2,0,0,1,1.1,0,2,2,0,0,1,.9.6,1.87,1.87,0,0,1,.44,1,1.93,1.93,0,0,1-.13,1.08m.94-3.15a4.34,4.34,0,0,0-1.73-1.25,3.85,3.85,0,0,0-2-.21,3.67,3.67,0,0,0-1.84.88,3.86,3.86,0,0,0-1.18,1.7,3.69,3.69,0,0,0-.12,2,4.48,4.48,0,0,0,2.7,3.16,3.87,3.87,0,0,0,2,.19,3.75,3.75,0,0,0,1.86-.89,3.73,3.73,0,0,0,1.26-3.7,4.22,4.22,0,0,0-1-1.91" transform="translate(-0.3 0.3)"/><path class="cls-1" d="M46.92,145.6a1.61,1.61,0,0,1-1,.65,1.31,1.31,0,0,1-1.07-.31,1.44,1.44,0,0,1-.56-1,1.54,1.54,0,0,1,.39-1.15l2.76-3.45-1.54-1.23-2.76,3.45a3.41,3.41,0,0,0-.74,1.61,3,3,0,0,0,.23,1.63,3.93,3.93,0,0,0,1.17,1.44,4,4,0,0,0,1.65.82,2.82,2.82,0,0,0,1.63-.15,3.47,3.47,0,0,0,1.4-1.08l2.76-3.45-1.54-1.23Z" transform="translate(-0.3 0.3)"/><polygon class="cls-1" points="57.98 153.13 57.06 147.53 55.54 146.72 52.02 153.38 53.65 154.23 55.75 150.25 56.67 155.83 58.19 156.63 61.7 149.97 60.09 149.12 57.98 153.13"/><path class="cls-1" d="M71.19,157a2.44,2.44,0,0,1-.56,1,1.8,1.8,0,0,1-.88.53,1.89,1.89,0,0,1-1,0l-1.27-.38,1.26-4.16,1.19.37a2,2,0,0,1,.92.56,2,2,0,0,1,.47,1,2.38,2.38,0,0,1-.08,1.17m1-3.14a4.41,4.41,0,0,0-1.86-1.06l-3.1-1-2.2,7.2,3,.93a4.72,4.72,0,0,0,2.18.17,3.55,3.55,0,0,0,1.77-.86,4.05,4.05,0,0,0,1.15-3.75,3.5,3.5,0,0,0-1-1.68" transform="translate(-0.3 0.3)"/><path class="cls-1" d="M80.94,159.84l1.35-2.54.72,2.78Zm.62-4.65-4,7.12,2,.23.67-1.27,3.24.37.36,1.38,2.08.23-2.29-7.83Z" transform="translate(-0.3 0.3)"/><polygon class="cls-1" points="96.33 155.76 89.88 156.1 89.97 157.72 92.2 157.6 92.51 163.5 94.48 163.4 94.16 157.5 96.41 157.38 96.33 155.76"/><rect class="cls-1" x="102.46" y="154.39" width="1.97" height="7.53" transform="translate(-29.13 23.48) rotate(-11.23)"/><path class="cls-1" d="M116,155.65a2.15,2.15,0,0,1-.41,1,1.93,1.93,0,0,1-.86.63,2,2,0,0,1-1.07.07,2.1,2.1,0,0,1-1-.49,2.38,2.38,0,0,1-.78-2.12,2,2,0,0,1,1.3-1.64,2,2,0,0,1,2,.42,2.35,2.35,0,0,1,.64,1,2.46,2.46,0,0,1,.14,1.16m.57-3.54a3.82,3.82,0,0,0-1.85-.8,4.57,4.57,0,0,0-3.9,1.44,3.82,3.82,0,0,0-.89,1.8,3.77,3.77,0,0,0,.18,2,3.92,3.92,0,0,0,1.19,1.7,3.72,3.72,0,0,0,1.86.81,4.2,4.2,0,0,0,2.12-.23,4.31,4.31,0,0,0,1.78-1.21,3.92,3.92,0,0,0-.49-5.55" transform="translate(-0.3 0.3)"/><polygon class="cls-1" points="130.67 151.11 126.78 144.66 125.21 145.61 127.56 149.48 122.29 147.37 120.81 148.27 124.7 154.71 126.28 153.76 123.95 149.91 129.2 152 130.67 151.11"/><path class="cls-1" d="M150.58,145.69l-18.52-18.22a1.64,1.64,0,0,1-.08-2.24,55.26,55.26,0,0,0-9.84-81,1.4,1.4,0,0,1-.6-1L119,28.06a2.66,2.66,0,0,0-1.19-1.81,2.59,2.59,0,0,0-2.13-.36,28.3,28.3,0,0,1-8.5.8,1.12,1.12,0,0,1-1-1l-.65-7.29a2.7,2.7,0,0,0-1.32-2.08A33.53,33.53,0,0,0,76.4,13.86a3.38,3.38,0,0,0-.51.24s0,0,0,0a2.76,2.76,0,0,0-.39.28c-.06.06-.09.12-.15.17l-.2.21L75,15c-.05.09-.11.16-.15.25s0,.14-.09.22a1.58,1.58,0,0,0-.09.26,1.36,1.36,0,0,0-.06.33l0,.18a2.4,2.4,0,0,0,0,.54l2.33,17.67a1.12,1.12,0,0,1-.82,1.23,55.3,55.3,0,0,0-40.31,65.21,1.63,1.63,0,0,1-1.13,1.93l-25,7.2a1.64,1.64,0,0,1-2.05-1.18A84.56,84.56,0,1,1,153,145.63a1.64,1.64,0,0,1-2.37.06M106.84,33.31A1.09,1.09,0,0,1,108,32.13a31.77,31.77,0,0,0,5.15-.28,1.09,1.09,0,0,1,1.22.89L116.68,47a1.1,1.1,0,0,1-.9,1.25,27.51,27.51,0,0,1-11.71-.65,1.09,1.09,0,0,1-.51-1.8l3.19-3.32,0-.05s.07-.09.11-.12.2-.28.28-.43l.07-.15a2.1,2.1,0,0,0,.2-.56s0,0,0-.06a2.92,2.92,0,0,0,0-.66s0-.06,0-.07Zm-26.45-14a1.07,1.07,0,0,1,.8-1.2A27.56,27.56,0,0,1,99.71,20a1.14,1.14,0,0,1,.62.9l1.2,13.53a1.07,1.07,0,0,1-1.39,1.14,33.42,33.42,0,0,0-16.59-1.12,1.08,1.08,0,0,1-1.28-.91Zm1,31a2.73,2.73,0,0,0,1.08-.23,2.82,2.82,0,0,0,1.58-3l-.8-6a1.09,1.09,0,0,1,.88-1.24,27.32,27.32,0,0,1,4.38-.55c.41,0,.81,0,1.22,0a26.62,26.62,0,0,1,3.34.2,1.17,1.17,0,0,1,1,1L95,48.32s0,.06,0,.1.06.29.11.45a.69.69,0,0,1,0,.13,2.13,2.13,0,0,0,.28.54.24.24,0,0,1,.06.08l.28.32a.15.15,0,0,1,.07.05.64.64,0,0,0,.16.11,3.69,3.69,0,0,0,.34.25.24.24,0,0,1,.09,0A33.08,33.08,0,0,0,111.37,54a33.73,33.73,0,0,0,9.27-1.3,2.48,2.48,0,0,0,1-.51,1.35,1.35,0,0,1,1.76,0,49.94,49.94,0,0,1,11.51,58.94c-.66,1.36-1.4,2.69-2.17,4a50.06,50.06,0,0,1-35.37,23.6,1.22,1.22,0,0,1-1.37-1l-.92-7.12a2.74,2.74,0,0,0-2.67-2.35l-.36,0a2.71,2.71,0,0,0-2.33,3s.58,4.3.88,6.59a1.26,1.26,0,0,1-1.25,1.41A50,50,0,0,1,40,89.26,49.5,49.5,0,0,1,42.73,72.9,50.09,50.09,0,0,1,76.54,41.12a1.13,1.13,0,0,1,1.42.93L78.75,48a2.68,2.68,0,0,0,2.66,2.34m8.53,123.56A84.67,84.67,0,0,1,10.06,117a1.65,1.65,0,0,1,1.1-2.11l25-7.2a1.63,1.63,0,0,1,2,1A55.3,55.3,0,0,0,126.24,131a1.62,1.62,0,0,1,2.22,0L147,149.31a1.63,1.63,0,0,1,0,2.37,84.2,84.2,0,0,1-57,22.2M89.94-.3a89.64,89.64,0,1,0,89.65,89.63A89.74,89.74,0,0,0,89.94-.3" transform="translate(-0.3 0.3)"/><path class="cls-1" d="M90.33,83.8c3.32,0,11.4,0,15.39,0a5.52,5.52,0,0,1,5.56,6.79,6.27,6.27,0,0,1-6.16,4.63H91.49a1.3,1.3,0,0,1-1.3-1.13L89,85.28a1.31,1.31,0,0,1,1.29-1.48M75.19,100c4.7.08,9.41.08,14.11.06h0c5,0,10,0,14.93,0h6.16a6.17,6.17,0,0,1,6,5.85c0,3.08-2.32,6-5.4,6,0,0-13.08-.06-17.29-.32-1-.06-1.1-.39-1.29-1.15s-.44-3.2-.44-3.2a2.73,2.73,0,0,0-2.68-2.35,2,2,0,0,0-.34,0A2.58,2.58,0,0,0,86.72,107a9.29,9.29,0,0,0-.08,2c0,.44.11.88.13,1.32a2,2,0,0,1-.09,1.15,1,1,0,0,1-.59.41,5,5,0,0,1-.86.06c-.56,0-1.11,0-1.67,0a2.22,2.22,0,0,0-2.17,1.26l-1.15,2.49c-.06.14-.13.28-.19.41a.91.91,0,0,0-.09.31,1,1,0,0,0,1,1.07h.26L92,117.25h.32l1.2,0h17.1a11.52,11.52,0,0,0,10.31-6.31,10.37,10.37,0,0,0,1.05-4.13,10.85,10.85,0,0,0-7.16-10.7.46.46,0,0,1-.21-.72,8.44,8.44,0,0,0,2.32-5.91,11.08,11.08,0,0,0-11.23-10.91l-14.77.2c-3.13,0-10.52-.08-14.45-.24a2.4,2.4,0,0,0-2.26,1.4c-.4.85-.87,1.9-1.26,2.73a.91.91,0,0,0,.85,1.3c1.3,0,2.17-.1,3.94-.09h4.56A1.31,1.31,0,0,1,83.56,85c.1.67.19,1.35.26,2l.54,4.06.24,1.75c0,.36.07.75.07,1.11a1.11,1.11,0,0,1-.28.88,1.07,1.07,0,0,1-.71.28,11.22,11.22,0,0,1-1.16,0H81.39c-1.08,0-2.17,0-3.26,0a27.37,27.37,0,0,1-6.38-.78,16.47,16.47,0,0,1-3.84-1.56,12.56,12.56,0,0,1-6.67-10.44C61,72.42,67.83,66.17,76.72,66.17c1.4,0,3.21-.17,4.25.94.52.54.75,3,1.18,3.82a2.6,2.6,0,0,0,2.14,1.14,2.44,2.44,0,0,0,.64-.08,2.81,2.81,0,0,0,2-3.14l-.47-3.55c-.18-1.9-.49-3.5-.49-3.5-.11-.58-.38-.63-.92-.58-1.16.11-2.34.16-3.5.16-2.06,0-4.1-.05-6.17-.05a19.19,19.19,0,0,0-19,13.18,20.42,20.42,0,0,0-1.08,6.59V82c0,10.53,9.19,17.88,19.9,18" transform="translate(-0.3 0.3)"/><text class="cls-2" transform="translate(107.7 540.3)">3</text></svg>